<?xml version="1.0"?>
<svg width="296.473" height="296.473" xmlns="http://www.w3.org/2000/svg" xmlns:svg="http://www.w3.org/2000/svg" transform="rotate(0)matrix(1, 0, 0, 1, 0, 0)" version="1.1" xml:space="preserve">
 <g class="layer">
  <title>Layer 1</title>
  <g id="SVGRepo_bgCarrier" stroke-width="0"/>
  <g id="SVGRepo_tracerCarrier" stroke-linecap="round" stroke-linejoin="round"/>
  <g id="svg_4">
   <g id="SVGRepo_iconCarrier">
    <g id="svg_1">
     <path d="m148.24,0c-81.87,0 -148.24,66.37 -148.24,148.24s66.37,148.23 148.24,148.23c81.86,0 148.23,-66.37 148.23,-148.23s-66.37,-148.24 -148.23,-148.24zm73.83,38.49l-9.44,13.97c-12.57,-8.47 -26.9,-14.52 -42.32,-17.51l3.31,-16.52c17.37,3.36 33.8,10.16 48.45,20.06zm-66.17,175.54l0,17.21l-14,0l0,-17.13c-10,-1.1 -19.38,-4.93 -26.44,-11.49c-7.05,-6.57 -10.28,-16.22 -10.05,-28.94l0.36,-0.44l24.72,0c0,8 1.78,13.31 5.34,16.66c3.56,3.36 8.08,5.04 13.58,5.04c5.26,0 9.29,-1.4 12.1,-4.21c2.8,-2.81 4.21,-6.58 4.21,-11.32c0,-4.69 -1.35,-8.5 -4.04,-11.45c-2.69,-2.95 -7.3,-5.7 -13.83,-8.24c-12.85,-4.69 -22.38,-9.91 -28.59,-15.66c-6.22,-5.76 -9.33,-13.87 -9.33,-24.34c0,-9.72 2.87,-17.68 9.09,-23.9c6.22,-6.22 14.88,-9.88 24.88,-10.98l0,-18.6l14,0l0,18.77c10,1.51 18.31,5.76 24.12,12.76c5.82,7 8.73,15.97 8.62,27.14l-0.2,0.33l-24.72,0c0,-7 -1.41,-11.99 -4.21,-15.69c-2.81,-3.7 -6.64,-5.5 -11.5,-5.5c-4.97,0 -8.67,1.46 -11.1,4.32c-2.43,2.86 -3.64,6.68 -3.64,11.42c0,4.51 1.28,8.18 3.86,10.98c2.57,2.81 7.3,5.57 14.18,8.29c12.78,5.03 22.26,10.41 28.42,16.14c6.16,5.73 9.24,13.74 9.24,24.03c0,10.07 -3.37,18.11 -9.55,24.12c-6.19,6.02 -14.52,9.58 -25.52,10.68zm-33.05,-195.6l3.19,16.54c-15.41,3.01 -29.74,9.07 -42.3,17.55l-9.34,-14.03c14.66,-9.9 31.08,-16.7 48.45,-20.06zm-84.35,55.97l13.96,9.44c-8.47,12.57 -14.52,26.9 -17.51,42.32l-16.52,-3.31c3.36,-17.37 10.16,-33.79 20.07,-48.45zm-0.01,147.67c-9.9,-14.66 -16.7,-31.08 -20.06,-48.45l16.55,-3.19c3,15.42 9.07,29.74 17.55,42.3l-14.04,9.34zm35.91,35.91l9.44,-13.97c12.57,8.47 26.9,14.52 42.32,17.51l-3.31,16.53c-17.37,-3.36 -33.8,-10.17 -48.45,-20.07zm99.22,20.07l-3.19,-16.55c15.42,-3.01 29.74,-9.07 42.3,-17.55l9.35,14.03c-14.66,9.9 -31.09,16.71 -48.46,20.07zm84.36,-55.98l-13.96,-9.44c8.46,-12.57 14.51,-26.9 17.5,-42.32l16.53,3.31c-3.36,17.37 -10.17,33.8 -20.07,48.45zm3.52,-96.03c-3.01,-15.42 -9.07,-29.74 -17.55,-42.3l14.03,-9.34c9.9,14.65 16.71,31.08 20.07,48.45l-16.55,3.19z" fill="#ff0000" id="svg_2"/>
    </g>
   </g>
   <rect fill="#ff0000" height="178" id="svg_3" stroke="#000000" stroke-width="0" width="111" x="96.74" y="60.53"/>
  </g>
 </g>
</svg>